<svg xmlns="http://www.w3.org/2000/svg" viewBox="0 0 180 180" fill="none" shape-rendering="auto"><metadata xmlns:rdf="http://www.w3.org/1999/02/22-rdf-syntax-ns#" xmlns:xsi="http://www.w3.org/2001/XMLSchema-instance" xmlns:dc="http://purl.org/dc/elements/1.1/" xmlns:dcterms="http://purl.org/dc/terms/"><rdf:RDF><rdf:Description><dc:title>Bottts</dc:title><dc:creator>Pablo Stanley</dc:creator><dc:source xsi:type="dcterms:URI">https://bottts.com/</dc:source><dcterms:license xsi:type="dcterms:URI">https://bottts.com/</dcterms:license><dc:rights>Remix of „Bottts” (https://bottts.com/) by „Pablo Stanley”, licensed under „Free for personal and commercial use” (https://bottts.com/)</dc:rights></rdf:Description></rdf:RDF></metadata><mask id="viewboxMask"><rect width="180" height="180" rx="90" ry="90" x="0" y="0" fill="#fff" /></mask><g mask="url(#viewboxMask)"><rect fill="#f43f5e" width="180" height="180" x="0" y="0" /><g transform="translate(0 66)"><mask id="sidesRound-a" style="mask-type:luminance" maskUnits="userSpaceOnUse" x="12" y="16" width="156" height="45"><g fill="#fff"><ellipse cx="150" cy="38.5" rx="18" ry="22.5"/><ellipse cx="18" cy="22.5" rx="18" ry="22.5" transform="matrix(-1 0 0 1 48 16)"/></g></mask><g mask="url(#sidesRound-a)"><path d="M0 0h180v76H0V0Z" fill="#43a047"/><path d="M0 0h180v76H0V0Z" fill="#fff" fill-opacity=".3"/><path fill="#000" fill-opacity=".2" d="M20 0h140v76H20z"/></g></g><g transform="translate(41)"><mask id="topLights-a" style="mask-type:luminance" maskUnits="userSpaceOnUse" x="10" y="22" width="80" height="30"><g fill="#fff"><path d="M10 42c0-1.1.9-2 2-2h76a2 2 0 0 1 2 2v10H10V42Z"/><path d="M18 27a5 5 0 0 1 5-5h6a5 5 0 0 1 5 5v25H18V27ZM42 27a5 5 0 0 1 5-5h6a5 5 0 0 1 5 5v25H42V27ZM66 27a5 5 0 0 1 5-5h6a5 5 0 0 1 5 5v25H66V27Z"/></g></mask><g mask="url(#topLights-a)"><path d="M0 0h100v52H0V0Z" fill="#43a047"/><path d="M0 0h100v52H0V0Z" fill="#fff" fill-opacity=".3"/><path fill="#fff" fill-opacity=".6" d="M0 0h100v40H0z"/><rect x="24" y="28" width="4" height="8" rx="2" fill="#fff" fill-opacity=".6"/><rect x="48" y="28" width="4" height="8" rx="2" fill="#fff" fill-opacity=".6"/><rect x="72" y="28" width="4" height="8" rx="2" fill="#fff" fill-opacity=".6"/></g></g><g transform="translate(25 44)"><mask id="faceSquare01-a" style="mask-type:luminance" maskUnits="userSpaceOnUse" x="0" y="0" width="130" height="120"><rect width="130" height="120" rx="18" fill="#fff"/></mask><g mask="url(#faceSquare01-a)"><path d="M-2-2h134v124H-2V-2Z" fill="#43a047"/><g transform="translate(-1 -1)"></g></g></g><g transform="translate(52 124)"><rect x="4" y="5" width="68" height="22" rx="5" fill="#000" fill-opacity=".2"/><rect x="8" y="9" width="60" height="14" rx="2" fill="#fff"/><path fill="#000" fill-opacity=".1" d="M18 9h4v14h-4zM42 9h4v14h-4zM30 9h4v14h-4zM54 9h4v14h-4z"/></g><g transform="translate(38 76)"><path d="M28 44a20 20 0 0 0 19.9-18h41.52a5 5 0 1 0 0-4H47.9A20 20 0 1 0 28 44Z" fill="#000" fill-opacity=".2"/><circle cx="94" cy="24" r="2" fill="#fff"/><circle cx="28" cy="24" r="16" fill="#000" fill-opacity=".6"/><circle cx="34" cy="16" r="3" fill="#fff"/></g></g></svg>