<svg xmlns="http://www.w3.org/2000/svg" viewBox="0 0 180 180" fill="none" shape-rendering="auto"><metadata xmlns:rdf="http://www.w3.org/1999/02/22-rdf-syntax-ns#" xmlns:xsi="http://www.w3.org/2001/XMLSchema-instance" xmlns:dc="http://purl.org/dc/elements/1.1/" xmlns:dcterms="http://purl.org/dc/terms/"><rdf:RDF><rdf:Description><dc:title>Bottts</dc:title><dc:creator>Pablo Stanley</dc:creator><dc:source xsi:type="dcterms:URI">https://bottts.com/</dc:source><dcterms:license xsi:type="dcterms:URI">https://bottts.com/</dcterms:license><dc:rights>Remix of „Bottts” (https://bottts.com/) by „Pablo Stanley”, licensed under „Free for personal and commercial use” (https://bottts.com/)</dc:rights></rdf:Description></rdf:RDF></metadata><mask id="viewboxMask"><rect width="180" height="180" rx="90" ry="90" x="0" y="0" fill="#fff" /></mask><g mask="url(#viewboxMask)"><rect fill="url(#backgroundLinear)" width="180" height="180" x="0" y="0" /><defs><linearGradient id="backgroundLinear" gradientTransform="rotate(84 0.5 0.5)"><stop stop-color="#34d399"/><stop offset="1" stop-color="#34d399"/></linearGradient></defs><g transform="translate(0 66)"><mask id="sidesAntenna02-a" style="mask-type:luminance" maskUnits="userSpaceOnUse" x="10" y="9" width="160" height="51"><g fill="#fff"><rect x="10" y="28" width="36" height="32" rx="4"/><path d="M160 9h2v20h-2z"/><rect x="134" y="28" width="36" height="32" rx="4"/></g></mask><g mask="url(#sidesAntenna02-a)"><path d="M0 0h180v76H0V0Z" fill="#6d4c41"/><path d="M0 0h180v76H0V0Z" fill="#fff" fill-opacity=".3"/><path fill="#000" fill-opacity=".1" d="M0 38h180v38H0z"/></g><path fill="#fff" fill-opacity=".4" d="M160 8h2v20h-2z"/><circle cx="161" cy="5" r="4" fill="#E1E6E8"/><circle cx="162" cy="4" r="2" fill="#fff"/></g><g transform="translate(41)"><mask id="topAntenna-a" style="mask-type:luminance" maskUnits="userSpaceOnUse" x="38" y="5" width="24" height="47"><path d="M38 38c0-1.1.9-2 2-2h20a2 2 0 0 1 2 2v14H38V38ZM48 5h4v31h-4z" fill="#fff"/></mask><g mask="url(#topAntenna-a)"><path d="M0 0h100v52H0V0Z" fill="#6d4c41"/><path d="M0 3h100v52H0V3Z" fill="#fff" fill-opacity=".3"/><path fill="#fff" fill-opacity=".2" d="M38 36h24v16H38z"/></g><circle cx="50" cy="8" r="8" fill="#FFE65C"/><circle cx="53" cy="5" r="3" fill="#fff"/></g><g transform="translate(25 44)"><mask id="faceSquare03-a" style="mask-type:luminance" maskUnits="userSpaceOnUse" x="0" y="0" width="130" height="120"><path fill-rule="evenodd" clip-rule="evenodd" d="M0 18A18 18 0 0 1 18 0h94a18 18 0 0 1 18 18v27.15a40 40 0 0 1-2.28 13.31L110.24 108a18 18 0 0 1-16.98 12H36.74a18 18 0 0 1-16.98-12L2.28 58.45A40 40 0 0 1 0 45.15V18Z" fill="#fff"/></mask><g mask="url(#faceSquare03-a)"><path d="M-2-2h134v124H-2V-2Z" fill="#6d4c41"/><g transform="translate(-1 -1)"></g></g></g><g transform="translate(52 124)"><rect x="4" y="4" width="68" height="24" rx="5" fill="#000" fill-opacity=".2"/><rect x="8" y="8" width="60" height="16" rx="2" fill="#000" fill-opacity=".8"/><path d="M9 17h11l2-4 3 7 4-8 2 9 3-11 3 10 3-3h15l3-4 2 7 3-3h4" stroke="#4EFAC9" stroke-width="2" stroke-linecap="round" stroke-linejoin="round"/></g><g transform="translate(38 76)"><rect x="7" y="16" width="91" height="16" rx="4" fill="#000" fill-opacity=".8"/><mask id="eyesRobocop-a" style="mask-type:luminance" maskUnits="userSpaceOnUse" x="7" y="16" width="91" height="16"><rect x="7" y="16" width="91" height="16" rx="4" fill="#fff"/></mask><g mask="url(#eyesRobocop-a)" fill-rule="evenodd" clip-rule="evenodd" fill="#fff" fill-opacity=".8"><path d="M76 7h18L82 37H64L76 7ZM52 7h9L49 37h-9L52 7Z"/></g></g></g></svg>